<svg xmlns="http://www.w3.org/2000/svg" width="43.281" height="43.283" viewBox="0 0 43.281 43.283">
  <path id="Trazado_27" data-name="Trazado 27" d="M490.867,510.32H458.874a5.644,5.644,0,0,0-5.644,5.644v31.995a5.643,5.643,0,0,0,5.644,5.644h31.993a5.643,5.643,0,0,0,5.644-5.644V515.964A5.644,5.644,0,0,0,490.867,510.32ZM463.79,529.08a1.326,1.326,0,0,1,1.327-1.325h0a1.322,1.322,0,0,0,1.26-.917,8.909,8.909,0,0,1,.566-1.371,1.336,1.336,0,0,0-.231-1.564l0,0a1.329,1.329,0,0,1,0-1.877l.645-.645a1.329,1.329,0,0,1,1.877,0l0,0a1.339,1.339,0,0,0,1.564.233,8.868,8.868,0,0,1,1.369-.568,1.32,1.32,0,0,0,.917-1.26v0a1.328,1.328,0,0,1,1.327-1.327h.913a1.329,1.329,0,0,1,1.327,1.327v0a1.317,1.317,0,0,0,.907,1.258,8.641,8.641,0,0,1,1.38.568,1.338,1.338,0,0,0,1.564-.231,1.331,1.331,0,0,1,1.877,0l.645.645a1.327,1.327,0,0,1,0,1.877l0,0a1.335,1.335,0,0,0-.231,1.564,8.874,8.874,0,0,1,.566,1.369,1.322,1.322,0,0,0,1.26.919h0a1.326,1.326,0,0,1,1.327,1.325v.913a1.326,1.326,0,0,1-1.327,1.327h0a1.32,1.32,0,0,0-1.26.917,8.977,8.977,0,0,1-.566,1.371,1.336,1.336,0,0,0,.231,1.564l0,0a1.325,1.325,0,0,1,0,1.875l-.645.645a1.327,1.327,0,0,1-1.877,0,1.318,1.318,0,0,0-.935-.387,1.378,1.378,0,0,0-.629.154,8.833,8.833,0,0,1-1.38.57,1.314,1.314,0,0,0-.907,1.258,1.326,1.326,0,0,1-1.327,1.327h-.913a1.326,1.326,0,0,1-1.327-1.327v0a1.321,1.321,0,0,0-.915-1.26,8.95,8.95,0,0,1-1.375-.568,1.33,1.33,0,0,0-1.56.233,1.328,1.328,0,0,1-1.879,0l-.645-.645a1.327,1.327,0,0,1,0-1.877l0,0a1.33,1.33,0,0,0,.233-1.56,8.826,8.826,0,0,1-.568-1.373,1.32,1.32,0,0,0-1.26-.917h0a1.326,1.326,0,0,1-1.327-1.327ZM491.2,546.31H458.543a.986.986,0,0,1,0-1.972H491.2a.986.986,0,0,1,0,1.972Z" transform="translate(-453.23 -510.32)" fill="#8f98a3"/>
</svg>
