<svg xmlns="http://www.w3.org/2000/svg" width="90.474" height="93.839" viewBox="0 0 90.474 93.839">
  <g id="Grupo_16" data-name="Grupo 16" transform="translate(0 0)">
    <g id="Grupo_15" data-name="Grupo 15" transform="translate(0 18.247)">
      <g id="Grupo_13" data-name="Grupo 13">
        <path id="Trazado_18" data-name="Trazado 18" d="M523.894,433.671a5.737,5.737,0,0,1-5.735,5.74H507.187a5.737,5.737,0,1,1,0-11.475h10.972A5.735,5.735,0,0,1,523.894,433.671Z" transform="translate(-501.452 -427.936)" fill="#8f98a3"/>
      </g>
      <g id="Grupo_14" data-name="Grupo 14" transform="translate(0 45.871)">
        <path id="Trazado_19" data-name="Trazado 19" d="M523.894,533.17a5.735,5.735,0,0,1-5.735,5.735H507.187a5.735,5.735,0,1,1,0-11.47h10.972A5.735,5.735,0,0,1,523.894,533.17Z" transform="translate(-501.452 -527.435)" fill="#8f98a3"/>
      </g>
    </g>
    <path id="Trazado_20" data-name="Trazado 20" d="M600.435,388.356H530.4a4.609,4.609,0,0,0-4.61,4.61v9.027h5.486a10.347,10.347,0,0,1,0,20.695h-5.486v25.176h5.486a10.345,10.345,0,0,1,0,20.69h-5.486v9.031a4.612,4.612,0,0,0,4.61,4.61h70.032a4.612,4.612,0,0,0,4.61-4.61V392.966A4.609,4.609,0,0,0,600.435,388.356ZM595.2,467.944a2.305,2.305,0,0,1-2.305,2.305H558.255a2.305,2.305,0,0,1-2.305-2.305V446.6a2.305,2.305,0,0,1,2.305-2.305H592.9A2.305,2.305,0,0,1,595.2,446.6ZM592.9,433.139H558.255a2.305,2.305,0,1,1,0-4.61H592.9a2.305,2.305,0,1,1,0,4.61Zm0-12.116H558.255a2.305,2.305,0,1,1,0-4.61H592.9a2.305,2.305,0,1,1,0,4.61Zm0-12.115H558.255a2.305,2.305,0,1,1,0-4.61H592.9a2.305,2.305,0,1,1,0,4.61Z" transform="translate(-514.571 -388.356)" fill="#8f98a3"/>
  </g>
</svg>

