<svg xmlns="http://www.w3.org/2000/svg" width="128.353" height="102.811" viewBox="0 0 128.353 102.811">
  <g id="clnt" transform="translate(0 0)">
    <path id="Trazado_9" data-name="Trazado 9" d="M837.894,593.107a8.539,8.539,0,0,0-8.015-5.612,8.439,8.439,0,0,0-2.433.359c-7.5,2.228-14.55,4.461-22.3,6.689l-.021.006a2.352,2.352,0,0,0-1.745,2.416,11.707,11.707,0,0,1-8.35,12.022,11.66,11.66,0,0,1-8.89-.94l-16.117-8.767a2.026,2.026,0,1,1,1.936-3.559l16.113,8.768a7.638,7.638,0,0,0,9.107-12.048q-18.807-10.231-37.626-20.457a13.68,13.68,0,0,0-10.432-1.093q-18.483,5.52-36.966,11.029a2.944,2.944,0,0,0-1.974,3.669l6.684,22.173a2.942,2.942,0,0,0,3.6,1.991l20.262-5.581a7.424,7.424,0,0,1,5.992.914q10.952,7.032,21.909,14.059a9.088,9.088,0,0,0,7.349,1.109c19.133-5.338,37.246-10.675,56.215-16.013A8.529,8.529,0,0,0,837.894,593.107Z" transform="translate(-710.059 -517.776)" fill="#8f98a3"/>
    <path id="Trazado_10" data-name="Trazado 10" d="M876.269,515.216a29.131,29.131,0,1,0-29.136-29.131A29.132,29.132,0,0,0,876.269,515.216Zm-.915-26.989c-4.445-1.743-8.569-4.076-8.569-9.268,0-4.242,2.814-7.531,7.246-8.581v-5.035h5.062v4.717a13.446,13.446,0,0,1,5.722,1.761l.76.445L883.63,477.4l-1.061-.606a10.559,10.559,0,0,0-5.529-1.494c-2.981,0-4.044,1.593-4.044,3.084,0,1.793,1.19,2.8,5.306,4.507,5.664,2.309,8.082,5.225,8.082,9.746,0,4.387-3.01,7.915-7.582,9.01v5.181h-5.11v-4.9a14.581,14.581,0,0,1-6.905-2.254l-.641-.458L868.015,494l1.11.74a11.686,11.686,0,0,0,6.332,1.888c2.791,0,4.667-1.47,4.667-3.659C880.125,490.976,878.743,489.6,875.353,488.228Z" transform="translate(-783.599 -456.954)" fill="#8f98a3"/>
  </g>
</svg>

