<svg id="cntrpart" xmlns="http://www.w3.org/2000/svg" width="80.532" height="95.311" viewBox="0 0 80.532 95.311">
  <path id="Trazado_5" data-name="Trazado 5" d="M143.765,598.214l-34.682,15.173a14.773,14.773,0,0,1-13.412-.8h0a.862.862,0,0,1,.1-1.537l25.768-10.83a10.8,10.8,0,0,1,9.744.7V594.4a2.489,2.489,0,0,0-3.49-2.279L90.042,608.713a2.489,2.489,0,0,0-1.487,2.279v50.134A13.4,13.4,0,0,0,107.1,673.5l38.619-16.066a2.489,2.489,0,0,0,1.533-2.3v-54.64A2.489,2.489,0,0,0,143.765,598.214Z" transform="translate(-66.72 -579.227)" fill="#8f98a3"/>
  <path id="Trazado_6" data-name="Trazado 6" d="M100.142,573.14a2.487,2.487,0,0,0-3.484-2.278L61.976,586.034a14.78,14.78,0,0,1-13.416-.8.866.866,0,0,1,.1-1.54l25.77-10.828a10.8,10.8,0,0,1,9.744.7v-6.518a2.487,2.487,0,0,0-3.489-2.278L42.934,581.362a2.483,2.483,0,0,0-1.488,2.278l.206,54.966a7.759,7.759,0,0,0,7.769,7.73l10.1-.013v-50a6.255,6.255,0,0,1,3.733-5.719l36.885-16.214Z" transform="translate(-41.446 -564.553)" fill="#8f98a3"/>
</svg>
    
