<svg xmlns="http://www.w3.org/2000/svg" width="84.766" height="95.321" viewBox="0 0 84.766 95.321">
  <g id="docs" transform="translate(0)">
    <path id="Trazado_15" data-name="Trazado 15" d="M683.333,161.873l-6.432.009v50.763a7.477,7.477,0,0,1-7.468,7.469H629.215v6.436a2.834,2.834,0,0,0,2.833,2.834h51.289a2.834,2.834,0,0,0,2.833-2.834V164.706A2.833,2.833,0,0,0,683.333,161.873Z" transform="translate(-615.31 -147.968)" fill="#8f98a3"/>
    <path id="Trazado_16" data-name="Trazado 16" d="M713.333,191.873l-6.433.009v50.763a7.477,7.477,0,0,1-7.468,7.469H659.215v6.436a2.834,2.834,0,0,0,2.833,2.834h51.289a2.834,2.834,0,0,0,2.833-2.834V194.706A2.833,2.833,0,0,0,713.333,191.873Z" transform="translate(-631.405 -164.063)" fill="#8f98a3"/>
    <path id="Trazado_17" data-name="Trazado 17" d="M653.333,131.873l-51.285.07a2.834,2.834,0,0,0-2.833,2.833v61.773a2.834,2.834,0,0,0,2.833,2.834h51.289a2.834,2.834,0,0,0,2.833-2.834V134.706A2.833,2.833,0,0,0,653.333,131.873Zm-35.807,8.465h20.247a1.159,1.159,0,1,1,0,2.318H617.526a1.159,1.159,0,0,1,0-2.318Zm-7.14,6.195h34.527a1.159,1.159,0,1,1,0,2.318H610.386a1.159,1.159,0,1,1,0-2.318Zm0,6.2h34.527a1.159,1.159,0,1,1,0,2.318H610.386a1.159,1.159,0,1,1,0-2.318Zm0,6.195h34.527a1.159,1.159,0,1,1,0,2.318H610.386a1.159,1.159,0,1,1,0-2.318ZM645,192.214H610.386a1.159,1.159,0,1,1,0-2.318H645a1.159,1.159,0,1,1,0,2.318Zm0-6.195H610.386a1.159,1.159,0,1,1,0-2.318H645a1.159,1.159,0,1,1,0,2.318Zm0-6.2H610.386a1.159,1.159,0,1,1,0-2.318H645a1.159,1.159,0,1,1,0,2.318Zm0-6.195H610.386a1.159,1.159,0,1,1,0-2.318H645a1.159,1.159,0,1,1,0,2.318Zm0-6.195H610.386a1.159,1.159,0,1,1,0-2.318H645a1.159,1.159,0,1,1,0,2.318Z" transform="translate(-599.215 -131.873)" fill="#8f98a3"/>
  </g>
</svg>

