<svg xmlns="http://www.w3.org/2000/svg" width="79.679" height="94.346" viewBox="0 0 79.679 94.346">
  <path id="inform" d="M394.751,388.356H324.342a4.635,4.635,0,0,0-4.635,4.635v85.076a4.635,4.635,0,0,0,4.635,4.635h70.409a4.635,4.635,0,0,0,4.635-4.635V392.991A4.635,4.635,0,0,0,394.751,388.356Zm-46.106,64.615h4.361v17.442h-4.361Zm-11.553-36.765c-3.378-1.325-6.512-3.1-6.512-7.043,0-3.223,2.139-5.724,5.506-6.522v-3.826h3.847V402.4a10.218,10.218,0,0,1,4.349,1.338l.578.338-1.478,3.9-.806-.461a8.027,8.027,0,0,0-4.2-1.136c-2.266,0-3.073,1.211-3.073,2.344,0,1.362.9,2.131,4.032,3.425,4.3,1.755,6.142,3.97,6.142,7.406a7.051,7.051,0,0,1-5.762,6.848v3.938h-3.883v-3.723a11.08,11.08,0,0,1-5.248-1.713l-.487-.348,1.419-3.963.844.563a8.882,8.882,0,0,0,4.812,1.435c2.121,0,3.547-1.118,3.547-2.781C340.718,418.295,339.668,417.25,337.092,416.206Zm6.8,41.522v12.685h-4.36V457.728Zm-8.919,4.163v8.325h-4.361V461.89Zm23.19,13.249H324.891v-29.7h2.318v27.383h30.951Zm-1.982-61.017a18.631,18.631,0,0,1,18.56-18.632h.071c.321,0,.638.008.955.024a18.523,18.523,0,0,1,9.688,3.314l-2.874,3.8a13.879,13.879,0,0,0-7.77-2.379c-.266,0-.527.008-.789.024a13.874,13.874,0,1,0,3.81,27.392l.658,4.729a19.025,19.025,0,0,1-3.679.361A18.63,18.63,0,0,1,356.177,414.123Zm27.749,0a9.118,9.118,0,1,1-9.118-9.118A9.119,9.119,0,0,1,383.926,414.123ZM366.88,451.385h15.857v4.361H366.88Zm5.55,23.388h-5.55v-4.361h5.55Zm19.425,0H376v-4.361h15.857Zm0-9.514H366.88V460.9h24.974Zm0-9.514H386.3v-4.361h5.55Zm0-9.514H366.88v-4.36h24.974ZM380.8,431.767l-.67-4.828a13.878,13.878,0,0,0,4.3-22.813l2.886-3.817a18.639,18.639,0,0,1-6.513,31.459Z" transform="translate(-319.707 -388.356)" fill="#8f98a3"/>
</svg>

