<svg id="usrs" xmlns="http://www.w3.org/2000/svg" width="43.297" height="36.762" viewBox="0 0 43.297 36.762">
  <g id="Grupo_11" data-name="Grupo 11" transform="translate(0 4.534)">
    <path id="Trazado_13" data-name="Trazado 13" d="M108.6,953.478v2.152H75.424v-2.152a16.6,16.6,0,0,1,10.524-15.446,8.57,8.57,0,0,0,12.132,0A16.6,16.6,0,0,1,108.6,953.478Z" transform="translate(-75.424 -923.402)" fill="#8f98a3"/>
    <ellipse id="Elipse_1" data-name="Elipse 1" cx="7.515" cy="7.515" rx="7.515" ry="7.515" transform="translate(9.076)" fill="#8f98a3"/>
  </g>
  <g id="Grupo_12" data-name="Grupo 12" transform="translate(23.717)">
    <path id="Trazado_14" data-name="Trazado 14" d="M218.071,901.175v1.475H204.625a18.175,18.175,0,0,0-6.134-4.265,9.131,9.131,0,0,0,2.042-5.764c0-.322-.018-.639-.049-.953a11.07,11.07,0,0,1,2.068-1.074,5.866,5.866,0,0,0,8.308,0A11.369,11.369,0,0,1,218.071,901.175Z" transform="translate(-198.491 -880.573)" fill="#8f98a3"/>
    <ellipse id="Elipse_2" data-name="Elipse 2" cx="5.148" cy="5.148" rx="5.148" ry="5.148" transform="translate(3.068)" fill="#8f98a3"/>
  </g>
</svg>
