<svg xmlns="http://www.w3.org/2000/svg" xmlns:xlink="http://www.w3.org/1999/xlink" viewBox="0 0 813.25 645.19"><defs><style>.cls-1{font-size:129.9px;letter-spacing:0.01em;}.cls-1,.cls-5{fill:#838487;}.cls-1,.cls-4{font-family:Impact;}.cls-2{font-size:42.22px;font-family:ArialNarrow, Arial;}.cls-3{font-size:99.38px;font-family:MaturaMTScriptCapitals, Matura MT Script Capitals;letter-spacing:0.01em;}.cls-4{font-size:81.8px;}.cls-6{fill:url(#Degradado_sin_nombre_13);}</style><linearGradient id="Degradado_sin_nombre_13" x1="145.63" y1="343.06" x2="716.39" y2="343.06" gradientUnits="userSpaceOnUse"><stop offset="0" stop-color="#fe9d00"/><stop offset="0.61" stop-color="#ffc924"/><stop offset="1" stop-color="#fe9d00"/></linearGradient></defs><title>Recurso 1</title><g id="Capa_2" data-name="Capa 2"><g id="Capa_6" data-name="Capa 6"><text class="cls-1" transform="translate(290.75 581.44)">FINANCES</text><text/><text class="cls-2" transform="translate(582.33 632.25)">¡Tú decides!</text><text class="cls-3" transform="translate(434.65 437.86)">A</text><text class="cls-4" transform="translate(574.1 450.51)">L Y</text><polygon points="390.39 338.54 332.61 237.48 231.96 428.23 100.65 399.5 264.05 118.74 332.61 0 401.17 118.74 469.99 237.35 390.39 338.54"/><polygon points="361.17 315.47 332.61 315.47 332.61 266.01 361.17 315.47"/><polygon class="cls-5" points="332.61 266.01 332.61 315.47 304.05 315.47 332.61 266.01"/><polygon class="cls-5" points="716.39 106.55 593.53 144.69 625.64 172.46 561.86 253.92 493.07 226.77 385.13 366.64 309.8 336.69 244.52 446.84 95.21 413.11 0 579.57 153.12 579.57 198 494.03 268.21 511.58 329.01 407.49 403.87 437.11 512.48 296.37 581.53 324.8 671.82 207.91 705.43 233.7 716.39 106.55"/><polygon class="cls-6" points="716.39 106.55 701.47 220.58 670.76 202.37 579.5 315.47 510.55 291.09 401.17 428.23 327.53 403.26 266.1 502.67 196.22 489.83 145.63 579.57 153.12 579.57 198 494.03 268.21 511.58 329.01 407.49 403.87 437.11 512.48 296.37 581.53 324.8 671.82 207.91 705.43 233.7 716.39 106.55"/><path class="cls-5" d="M798.58,452.42a14.68,14.68,0,1,0,14.67,14.68A14.68,14.68,0,0,0,798.58,452.42Zm0,26.91a12.23,12.23,0,1,1,12.23-12.23A12.23,12.23,0,0,1,798.58,479.33Z"/><path class="cls-5" d="M793.43,474.76V458.62h5.62a7.87,7.87,0,0,1,3.09.44,3.38,3.38,0,0,1,1.51,1.51,5.17,5.17,0,0,1,.6,2.57,4.75,4.75,0,0,1-.91,3,4,4,0,0,1-2.58,1.46,6.78,6.78,0,0,1,1.42,1.34,20.45,20.45,0,0,1,1.53,2.63l1.61,3.15h-3.19l-1.93-3.51a24.12,24.12,0,0,0-1.42-2.39,2.07,2.07,0,0,0-.79-.66,3.69,3.69,0,0,0-1.35-.18h-.55v6.74Zm2.66-9.31h2a10.33,10.33,0,0,0,2.32-.16,1.48,1.48,0,0,0,.8-.65,2.4,2.4,0,0,0,.31-1.28,2.25,2.25,0,0,0-.31-1.24,1.64,1.64,0,0,0-.84-.65,10.61,10.61,0,0,0-2.16-.12h-2.1Z"/></g></g></svg>