<svg id="Grupo_45" data-name="Grupo 45" xmlns="http://www.w3.org/2000/svg" width="37.541" height="36.797" viewBox="0 0 37.541 36.797">
  <path id="Trazado_23" data-name="Trazado 23" d="M838.1,589.178v27.313a.765.765,0,0,1-1.114.681l-14.9-7.648a.765.765,0,0,1-.415-.68V582.286a1.822,1.822,0,0,1,.572-1.328.751.751,0,0,1,.534.057l14.9,7.479A.763.763,0,0,1,838.1,589.178Z" transform="translate(-821.678 -580.46)" fill="#8f98a3"/>
  <path id="Trazado_24" data-name="Trazado 24" d="M868.308,604h-4.877v3.082h6.132a1.827,1.827,0,0,0,1.826-1.826v-10.4h-3.082Zm1.256-25.769H849.712l6.138,3.082h12.457v5.076h3.082v-6.331A1.827,1.827,0,0,0,869.564,578.229Z" transform="translate(-844.805 -578.229)" fill="#8f98a3"/>
  <path id="Trazado_25" data-name="Trazado 25" d="M948.1,617.977l-7.159-6.085a.433.433,0,0,0-.713.33v3.62a.433.433,0,0,1-.433.432h-9.764a.432.432,0,0,0-.432.432v3.2a.432.432,0,0,0,.432.432h9.764a.433.433,0,0,1,.433.433v3.62a.432.432,0,0,0,.713.33l7.159-6.085A.433.433,0,0,0,948.1,617.977Z" transform="translate(-910.709 -605.914)" fill="#8f98a3"/>
</svg>
