<svg id="coin" xmlns="http://www.w3.org/2000/svg" width="110.727" height="110.726" viewBox="0 0 110.727 110.726">
  <path id="Trazado_11" data-name="Trazado 11" d="M822.458,770.595a55.363,55.363,0,1,0,55.363,55.363A55.426,55.426,0,0,0,822.458,770.595Zm0,103.773a48.41,48.41,0,1,1,48.411-48.41A48.465,48.465,0,0,1,822.458,874.368Z" transform="translate(-767.095 -770.595)" fill="#8f98a3"/>
  <path id="Trazado_12" data-name="Trazado 12" d="M837.707,799.02A42.188,42.188,0,1,0,879.9,841.208,42.187,42.187,0,0,0,837.707,799.02Zm-6.1,22.485,5.956-10.313,5.956,10.313,6.257,10.846c-.167.158-.315.292-.436.4a34.834,34.834,0,0,1-8.162,5.34l-3.615-6.267-5.252,9.094c-.385.07-.755.134-1.117.19v0h0a.927.927,0,0,0-.111.018,1.163,1.163,0,0,0-.125.019,42.415,42.415,0,0,1-6.693.528c-1.386,0-2.79-.069-4.181-.2Zm8.436,17.094h-4.96l2.48-4.3ZM821.9,859.623l-.1.028a58.431,58.431,0,0,1-13.039,1.919l10.132-17.9a43.706,43.706,0,0,0,11.977-.283c.074-.014.158-.028.241-.042a37.454,37.454,0,0,0,8.978-2.554,36.34,36.34,0,0,0,10.058-6.4,38.458,38.458,0,0,0,5.469-6.331,51.262,51.262,0,0,0,6.41-14.586C859.552,834.5,843.056,853.955,821.9,859.623Zm27.314-7.634-2.656-4.607q1.828-1.731,3.513-3.634a56.362,56.362,0,0,0,3.648-4.589l12.936,22.41Z" transform="translate(-782.344 -785.845)" fill="#8f98a3"/>
</svg>


