<svg xmlns="http://www.w3.org/2000/svg" width="128.353" height="102.812" viewBox="0 0 128.353 102.812">
  <g id="prvdr" transform="translate(0 0)">
    <path id="Trazado_7" data-name="Trazado 7" d="M358.33,917.261a8.539,8.539,0,0,1,8.014-5.612,8.44,8.44,0,0,1,2.434.359c7.5,2.228,14.55,4.461,22.295,6.689l.021.006a2.351,2.351,0,0,1,1.745,2.416,11.707,11.707,0,0,0,8.35,12.022,11.8,11.8,0,0,0,3.326.48,11.673,11.673,0,0,0,5.565-1.42l16.117-8.767a2.026,2.026,0,0,0,.811-2.748h0a2.026,2.026,0,0,0-2.747-.811l-16.113,8.767a7.638,7.638,0,0,1-9.107-12.047q18.807-10.231,37.626-20.458a13.684,13.684,0,0,1,10.432-1.093q18.483,5.52,36.966,11.029a2.945,2.945,0,0,1,1.975,3.669l-6.684,22.174a2.942,2.942,0,0,1-3.6,1.99l-20.262-5.58a7.424,7.424,0,0,0-5.992.913q-10.952,7.033-21.909,14.059a9.084,9.084,0,0,1-7.349,1.109C401.113,939.071,383,933.733,364.031,928.4A8.528,8.528,0,0,1,358.33,917.261Z" transform="translate(-357.81 -841.93)" fill="#8f98a3"/>
    <path id="Trazado_8" data-name="Trazado 8" d="M549.663,814.926h-.01a3.509,3.509,0,0,0-3.332,2.465,23.271,23.271,0,0,1-1.473,3.549,3.515,3.515,0,0,0,.609,4.11l.007.007a3.489,3.489,0,0,1,0,4.933l-1.694,1.7a3.489,3.489,0,0,1-4.935,0l-.005-.005a3.515,3.515,0,0,0-4.11-.609,23.281,23.281,0,0,1-3.549,1.472,3.509,3.509,0,0,0-2.464,3.332v.005a3.489,3.489,0,0,1-3.489,3.489h-2.4a3.489,3.489,0,0,1-3.489-3.489v0a3.509,3.509,0,0,0-2.467-3.333,23.133,23.133,0,0,1-3.551-1.471,3.516,3.516,0,0,0-4.112.61h0a3.488,3.488,0,0,1-4.935,0l-1.7-1.7a3.489,3.489,0,0,1,0-4.934l.005-.005a3.515,3.515,0,0,0,.608-4.111,23.153,23.153,0,0,1-1.471-3.548,3.51,3.51,0,0,0-3.333-2.466h0a3.488,3.488,0,0,1-3.488-3.488v-2.4a3.488,3.488,0,0,1,3.488-3.488h0a3.51,3.51,0,0,0,3.333-2.466,23.132,23.132,0,0,1,1.471-3.548,3.516,3.516,0,0,0-.608-4.111l-.005,0a3.489,3.489,0,0,1,0-4.934l1.7-1.7a3.488,3.488,0,0,1,4.935,0h0a3.516,3.516,0,0,0,4.112.61,23.122,23.122,0,0,1,3.551-1.471,3.509,3.509,0,0,0,2.467-3.333v0a3.489,3.489,0,0,1,3.489-3.489h2.4a3.489,3.489,0,0,1,3.489,3.489v.005a3.509,3.509,0,0,0,2.464,3.332,23.269,23.269,0,0,1,3.549,1.473,3.515,3.515,0,0,0,4.11-.609l.005-.005a3.489,3.489,0,0,1,4.935,0l1.694,1.7a3.489,3.489,0,0,1,0,4.933l-.007.007a3.515,3.515,0,0,0-.609,4.11,23.267,23.267,0,0,1,1.473,3.549,3.509,3.509,0,0,0,3.332,2.464h.01a3.488,3.488,0,0,1,3.489,3.488v2.4A3.488,3.488,0,0,1,549.663,814.926Zm-11.99-9.376a13.742,13.742,0,0,0-.681-1.653,14.516,14.516,0,0,0-6.631-6.631,13.362,13.362,0,0,0-1.652-.686,14.364,14.364,0,0,0-9.376,0,13.091,13.091,0,0,0-1.658.686,14.48,14.48,0,0,0-6.625,6.631,12.919,12.919,0,0,0-.686,1.653,14.362,14.362,0,0,0,0,9.376,12.884,12.884,0,0,0,.686,1.652,14.479,14.479,0,0,0,6.625,6.631,13.1,13.1,0,0,0,1.658.686,14.363,14.363,0,0,0,9.376,0,13.371,13.371,0,0,0,1.652-.686,14.515,14.515,0,0,0,6.631-6.631,13.7,13.7,0,0,0,.681-1.652,14.365,14.365,0,0,0,0-9.376Z" transform="translate(-488.335 -781.106)" fill="#8f98a3"/>
  </g>
</svg>

