<svg xmlns="http://www.w3.org/2000/svg" width="80.811" height="91.136" viewBox="0 0 80.811 91.136">
  <g id="reg" transform="translate(0 0)">
    <path id="Trazado_2" data-name="Trazado 2" d="M217.265,136.734a6.817,6.817,0,0,1-6.816-6.816V118.65H165.42a3.305,3.305,0,0,0-3.3,3.306v72.031a3.3,3.3,0,0,0,3.3,3.3H195.1A26.405,26.405,0,0,1,193.276,191H170.153a1.922,1.922,0,1,1,0-3.844h22.781c0-.15,0-.3,0-.45a27.5,27.5,0,0,1,.2-3.3H170.153a1.922,1.922,0,1,1,0-3.844H193.9a25.769,25.769,0,0,1,1.346-3.756H170.153a1.922,1.922,0,1,1,0-3.844h27.191a26.918,26.918,0,0,1,2.972-3.756H170.153a1.922,1.922,0,1,1,0-3.844h34.706a26.66,26.66,0,0,1,8.4-3.756H170.153a1.922,1.922,0,1,1,0-3.844h50.341a1.922,1.922,0,0,1,1.511,3.11,26.847,26.847,0,0,1,6.528,1.349V136.734Zm-27.829,16.273H170.153a1.922,1.922,0,1,1,0-3.844h19.283a1.922,1.922,0,1,1,0,3.844Zm0-7.6H170.153a1.922,1.922,0,1,1,0-3.844h19.283a1.922,1.922,0,1,1,0,3.844Zm0-7.6H170.153a1.922,1.922,0,1,1,0-3.844h19.283a1.922,1.922,0,1,1,0,3.844Zm0-7.6H170.153a1.922,1.922,0,1,1,0-3.844h19.283a1.922,1.922,0,1,1,0,3.844Zm15.093,17.011a.485.485,0,0,0-.354.462v1.58a.491.491,0,0,1-.492.492h-1.418a.491.491,0,0,1-.492-.492V147.89a.486.486,0,0,0-.419-.484,6.65,6.65,0,0,1-2.829-1.015l-.3-.216.669-1.864a.491.491,0,0,1,.734-.242,5.483,5.483,0,0,0,2.979.888c1.311,0,2.2-.692,2.2-1.722,0-.938-.65-1.584-2.245-2.229-2.091-.819-4.033-1.918-4.033-4.36a4.061,4.061,0,0,1,3.068-3.948.487.487,0,0,0,.342-.473v-1.5a.491.491,0,0,1,.492-.492h1.4a.49.49,0,0,1,.488.492v1.3a.494.494,0,0,0,.427.481,6.113,6.113,0,0,1,2.268.776l.358.211-.915,2.414-.5-.285a4.964,4.964,0,0,0-2.6-.7c-1.4,0-1.9.75-1.9,1.449,0,.842.558,1.319,2.5,2.122,2.664,1.084,3.8,2.457,3.8,4.582A4.319,4.319,0,0,1,204.529,147.221Z" transform="translate(-162.118 -118.65)" fill="#8f98a3"/>
    <path id="Trazado_3" data-name="Trazado 3" d="M259.965,215.7a23.077,23.077,0,1,0,23.077,23.077A23.077,23.077,0,0,0,259.965,215.7Zm-6.045,33.727-.672.168-5.459,1.358,1.358-5.459.168-.672.168-.672,5.109,5.11Zm1.512-1.008-5.109-5.109,12.756-12.756,5.109,5.109ZM272.349,231.5l-2.481,2.481-.42.42-.42.42-5.109-5.109.42-.42.42-.42,2.482-2.481c.959-.959,2.881-.593,4.292.818a4.584,4.584,0,0,1,1.3,2.315A2.151,2.151,0,0,1,272.349,231.5Z" transform="translate(-202.232 -170.715)" fill="#8f98a3"/>
    <path id="Trazado_4" data-name="Trazado 4" d="M276.544,133.851h11.268a3.194,3.194,0,0,0-.935-2.258l-12.008-12.008a3.194,3.194,0,0,0-2.258-.935v11.268A3.933,3.933,0,0,0,276.544,133.851Z" transform="translate(-221.397 -118.65)" fill="#8f98a3"/>
  </g>
</svg>
